# xmcd
#
# Track frame offsets: 
#        150
#        17530
#        36538
#        57968
#        72069
#        84507
#        103000
#        124780
#        137955
#        157382
#        175651
#        185124
#        204730
#
# Disc length: 2924 seconds
#
# Revision: 0
# Processed by: cddbd v1.5.2PL0 Copyright (c) Steve Scherf et al.
# Submitted via: ExactAudioCopy v1.3
#
DISCID=bf0b6a0d
DTITLE=Backers Blaa - Damer, dram og drama
DYEAR=2010
DGENRE=Blues
TTITLE0=Sugerne
TTITLE1=Blues for kroa
TTITLE2=I morgen er det atter en dag
TTITLE3=Jeg har deg
TTITLE4=Eli Kari's boogie
TTITLE5=Min trollkar funkar
TTITLE6=Barbeint blues
TTITLE7=Sveve høyt i det blå
TTITLE8=Farvel vonde verd
TTITLE9=Robåt på indre havn
TTITLE10=Robåt blues
TTITLE11=Blå morgen
TTITLE12=Jimmi's blues
EXTD=
EXTT0=
EXTT1=
EXTT2=
EXTT3=
EXTT4=
EXTT5=
EXTT6=
EXTT7=
EXTT8=
EXTT9=
EXTT10=
EXTT11=
EXTT12=
PLAYORDER=
